<svg xmlns="http://www.w3.org/2000/svg" width="1257.973" height="526.756" viewBox="0 0 1257.973 526.756">
  <g id="Group_32" data-name="Group 32" transform="translate(2929.986 10346.878)">
    <path id="Icon_awesome-grin-hearts" data-name="Icon awesome-grin-hearts" d="M205.489.563C91.973.563,0,92.536,0,206.052S91.973,411.541,205.489,411.541s205.489-91.973,205.489-205.489S319.006.563,205.489.563ZM74.9,146.062c5.552-14.583,22.123-22.123,37.2-18.146l5.883,1.574,1.657-5.883c4.143-15,18.892-25.6,34.386-23.118A29.313,29.313,0,0,1,177.9,137.362L161.823,195.28a7.118,7.118,0,0,1-8.7,4.972l-58.167-15.08A29.4,29.4,0,0,1,74.9,146.062ZM205.489,351.883c-50.212,0-111.445-31.735-119.151-77.307a13.282,13.282,0,0,1,17.152-14.832c25.023,8.037,62.227,12.595,102,12.595s76.976-4.557,102-12.595a13.326,13.326,0,0,1,17.152,14.832C316.934,320.148,255.7,351.883,205.489,351.883ZM316.023,185.089l-58.167,15.08a7.2,7.2,0,0,1-8.7-4.972l-16.075-57.918a29.313,29.313,0,0,1,23.863-36.872c15.412-2.486,30.161,8.12,34.386,23.118l1.657,5.883,5.883-1.574c15.08-3.894,31.652,3.563,37.2,18.146a29.346,29.346,0,0,1-20.052,39.109Z" transform="translate(-2930.179 -10206.844) rotate(-20)" fill="#2362d9"/>
    <text id="EARNFT" transform="translate(-2403.014 -9995.664)" font-size="200" font-family="Poppins-Medium, Poppins" font-weight="500"><tspan x="0" y="0">EARNFT</tspan></text>
  </g>
</svg>
