<svg xmlns="http://www.w3.org/2000/svg" width="149.714" height="131" viewBox="0 0 149.714 131">
  <path id="Icon_awesome-wallet" data-name="Icon awesome-wallet" d="M134.86,30.321H23.393a4.679,4.679,0,1,1,0-9.357H135.679a4.677,4.677,0,0,0,4.679-4.679A14.036,14.036,0,0,0,126.321,2.25H18.714A18.713,18.713,0,0,0,0,20.964v93.571A18.713,18.713,0,0,0,18.714,133.25H134.86c8.193,0,14.854-6.3,14.854-14.036V44.357C149.714,36.617,143.053,30.321,134.86,30.321ZM121.643,91.143A9.357,9.357,0,1,1,131,81.786,9.358,9.358,0,0,1,121.643,91.143Z" transform="translate(0 -2.25)" fill="#fff"/>
</svg>
